# xmcd CD database file
#
# Track frame offsets:
#	150
#	13977
#	32436
#	46625
#	63262
#	79837
#	101553
#	118365
#	132024
#	145757
#	158988
#	175113
#
# Disc length: 2541 seconds
#
# Revision: 0
# Processed by: cddbd v1.5.2PL0 Copyright (c) Steve Scherf et al.
# Submitted via: CDex 2.18
#
DISCID=9709eb0c
DTITLE=Alan Godage - Alan Godage and Sundown
DYEAR=1900
DGENRE=Country
TTITLE0=Come Sundown
TTITLE1=Old Habits
TTITLE2=God Must Be A Cowboy
TTITLE3=You Put the Soul In The Song
TTITLE4=Long Black Limousine
TTITLE5=I Wonder If God Likes Country Music
TTITLE6=Someday When Things Are Good
TTITLE7=Distant Drums
TTITLE8=Diana
TTITLE9=If I Need A Lady
TTITLE10=My Favorite Memory
TTITLE11=Jackson
EXTD=
EXTT0=
EXTT1=
EXTT2=
EXTT3=
EXTT4=
EXTT5=
EXTT6=
EXTT7=
EXTT8=
EXTT9=
EXTT10=
EXTT11=
PLAYORDER=
